<?xml version="1.0" encoding="UTF-8"?>
<svg xmlns="http://www.w3.org/2000/svg" version="1.1" xmlns:xlink="http://www.w3.org/1999/xlink" viewBox="0 0 359.7 567.8">
  <defs>
    <style>
      .cls-1 {
        fill: url(#Gradiente_sem_nome_15-12);
      }

      .cls-2 {
        fill: url(#Gradiente_sem_nome_11-6);
      }

      .cls-3 {
        fill: url(#Gradiente_sem_nome_11-5);
      }

      .cls-4 {
        fill: url(#Gradiente_sem_nome_15-11);
      }

      .cls-5 {
        fill: url(#Gradiente_sem_nome_11-7);
      }

      .cls-6 {
        fill: url(#Gradiente_sem_nome_11);
      }

      .cls-7 {
        fill: url(#Gradiente_sem_nome_15-13);
      }

      .cls-8 {
        fill: url(#Gradiente_sem_nome_15-17);
      }

      .cls-9 {
        fill: url(#Gradiente_sem_nome_15-10);
      }

      .cls-10 {
        fill: url(#Gradiente_sem_nome_15-2);
      }

      .cls-11 {
        fill: url(#Gradiente_sem_nome_15-19);
      }

      .cls-12 {
        fill: url(#Gradiente_sem_nome_6-2);
      }

      .cls-13 {
        fill: url(#Gradiente_sem_nome_15);
      }

      .cls-14 {
        fill: url(#Gradiente_sem_nome_15-5);
      }

      .cls-15 {
        fill: url(#Gradiente_sem_nome_15-3);
      }

      .cls-16 {
        fill: url(#Gradiente_sem_nome_15-4);
      }

      .cls-17 {
        fill: url(#Gradiente_sem_nome_15-14);
      }

      .cls-18 {
        fill: url(#Gradiente_sem_nome_15-20);
      }

      .cls-19 {
        fill: url(#Gradiente_sem_nome_11-2);
      }

      .cls-20 {
        fill: url(#Gradiente_sem_nome_11-8);
      }

      .cls-21 {
        fill: url(#Gradiente_sem_nome_6);
      }

      .cls-22 {
        fill: url(#Gradiente_sem_nome_11-3);
      }

      .cls-23 {
        fill: url(#Gradiente_sem_nome_15-15);
      }

      .cls-24 {
        fill: #2b1f49;
      }

      .cls-25 {
        fill: url(#Gradiente_sem_nome_15-18);
      }

      .cls-26 {
        fill: url(#Gradiente_sem_nome_15-6);
      }

      .cls-27 {
        fill: url(#Gradiente_sem_nome_15-8);
      }

      .cls-28 {
        fill: url(#Gradiente_sem_nome_11-4);
      }

      .cls-29 {
        fill: url(#Gradiente_sem_nome_15-9);
      }

      .cls-30 {
        fill: url(#Gradiente_sem_nome_15-7);
      }

      .cls-31 {
        fill: url(#Gradiente_sem_nome_15-16);
      }
    </style>
    <linearGradient id="Gradiente_sem_nome_6" data-name="Gradiente sem nome 6" x1="174.5" y1="295.3" x2="174.5" y2="181.2" gradientUnits="userSpaceOnUse">
      <stop offset="0" stop-color="#e97f0e"/>
      <stop offset="1" stop-color="#fccb1a"/>
    </linearGradient>
    <linearGradient id="Gradiente_sem_nome_11" data-name="Gradiente sem nome 11" x1="181.7" y1="140.8" x2="213.1" y2="140.8" gradientUnits="userSpaceOnUse">
      <stop offset="0" stop-color="#f4ae18"/>
      <stop offset="0" stop-color="#f5b218"/>
      <stop offset=".3" stop-color="#f9c019"/>
      <stop offset=".5" stop-color="#fbc819"/>
      <stop offset="1" stop-color="#fccb1a"/>
    </linearGradient>
    <linearGradient id="Gradiente_sem_nome_11-2" data-name="Gradiente sem nome 11" x1="168.1" y1="141.1" x2="136.2" y2="141.1" xlink:href="#Gradiente_sem_nome_11"/>
    <linearGradient id="Gradiente_sem_nome_11-3" data-name="Gradiente sem nome 11" x1="108.7" y1="218.8" x2="47" y2="218.8" xlink:href="#Gradiente_sem_nome_11"/>
    <linearGradient id="Gradiente_sem_nome_11-4" data-name="Gradiente sem nome 11" x1="239.8" y1="218.7" x2="300.9" y2="218.7" xlink:href="#Gradiente_sem_nome_11"/>
    <linearGradient id="Gradiente_sem_nome_11-5" data-name="Gradiente sem nome 11" x1="115.8" y1="197.9" x2="54.8" y2="197.9" xlink:href="#Gradiente_sem_nome_11"/>
    <linearGradient id="Gradiente_sem_nome_11-6" data-name="Gradiente sem nome 11" x1="233.4" y1="198.2" x2="293.3" y2="198.2" xlink:href="#Gradiente_sem_nome_11"/>
    <linearGradient id="Gradiente_sem_nome_11-7" data-name="Gradiente sem nome 11" x1="149.1" y1="148.9" x2="114.1" y2="148.9" xlink:href="#Gradiente_sem_nome_11"/>
    <linearGradient id="Gradiente_sem_nome_11-8" data-name="Gradiente sem nome 11" x1="200" y1="149.2" x2="235.1" y2="149.2" xlink:href="#Gradiente_sem_nome_11"/>
    <linearGradient id="Gradiente_sem_nome_6-2" data-name="Gradiente sem nome 6" x1="174.4" y1="274.3" x2="174.4" y2="201.4" xlink:href="#Gradiente_sem_nome_6"/>
    <linearGradient id="Gradiente_sem_nome_15" data-name="Gradiente sem nome 15" x1="175" y1="149.7" x2="175" y2="89.1" gradientUnits="userSpaceOnUse">
      <stop offset="0" stop-color="#4f2878"/>
      <stop offset="1" stop-color="#b67ab3"/>
    </linearGradient>
    <linearGradient id="Gradiente_sem_nome_15-2" data-name="Gradiente sem nome 15" x1="174.8" y1="383" x2="174.8" y2="325.9" xlink:href="#Gradiente_sem_nome_15"/>
    <linearGradient id="Gradiente_sem_nome_15-3" data-name="Gradiente sem nome 15" x1="97.2" y1="317" x2="97.2" y2="280.5" xlink:href="#Gradiente_sem_nome_15"/>
    <linearGradient id="Gradiente_sem_nome_15-4" data-name="Gradiente sem nome 15" x1="51.3" y1="249.8" x2="51.3" y2="228" xlink:href="#Gradiente_sem_nome_15"/>
    <linearGradient id="Gradiente_sem_nome_15-5" data-name="Gradiente sem nome 15" x1="251.9" y1="317" x2="251.9" y2="280.4" xlink:href="#Gradiente_sem_nome_15"/>
    <linearGradient id="Gradiente_sem_nome_15-6" data-name="Gradiente sem nome 15" x1="297.1" y1="250" x2="297.1" y2="227.9" xlink:href="#Gradiente_sem_nome_15"/>
    <linearGradient id="Gradiente_sem_nome_15-7" data-name="Gradiente sem nome 15" x1="252.1" y1="195.9" x2="252.1" y2="159.8" xlink:href="#Gradiente_sem_nome_15"/>
    <linearGradient id="Gradiente_sem_nome_15-8" data-name="Gradiente sem nome 15" x1="97.3" y1="195.5" x2="97.3" y2="160.4" xlink:href="#Gradiente_sem_nome_15"/>
    <linearGradient id="Gradiente_sem_nome_15-9" data-name="Gradiente sem nome 15" x1="93.1" y1="164.8" x2="93.1" y2="135.3" xlink:href="#Gradiente_sem_nome_15"/>
    <linearGradient id="Gradiente_sem_nome_15-10" data-name="Gradiente sem nome 15" x1="92.9" y1="341" x2="92.9" y2="312" xlink:href="#Gradiente_sem_nome_15"/>
    <linearGradient id="Gradiente_sem_nome_15-11" data-name="Gradiente sem nome 15" x1="256.2" y1="341.1" x2="256.2" y2="312.1" xlink:href="#Gradiente_sem_nome_15"/>
    <linearGradient id="Gradiente_sem_nome_15-12" data-name="Gradiente sem nome 15" x1="152.3" y1="363.5" x2="152.3" y2="306.3" xlink:href="#Gradiente_sem_nome_15"/>
    <linearGradient id="Gradiente_sem_nome_15-13" data-name="Gradiente sem nome 15" x1="85.1" y1="293.2" x2="85.1" y2="265.5" xlink:href="#Gradiente_sem_nome_15"/>
    <linearGradient id="Gradiente_sem_nome_15-14" data-name="Gradiente sem nome 15" x1="256.1" y1="164.8" x2="256.1" y2="135.4" xlink:href="#Gradiente_sem_nome_15"/>
    <linearGradient id="Gradiente_sem_nome_15-15" data-name="Gradiente sem nome 15" x1="197.3" y1="363.4" x2="197.3" y2="306.1" xlink:href="#Gradiente_sem_nome_15"/>
    <linearGradient id="Gradiente_sem_nome_15-16" data-name="Gradiente sem nome 15" x1="263.6" y1="293.2" x2="263.6" y2="265.7" xlink:href="#Gradiente_sem_nome_15"/>
    <linearGradient id="Gradiente_sem_nome_15-17" data-name="Gradiente sem nome 15" x1="78.2" y1="273.3" x2="78.2" y2="245.8" xlink:href="#Gradiente_sem_nome_15"/>
    <linearGradient id="Gradiente_sem_nome_15-18" data-name="Gradiente sem nome 15" x1="270.6" y1="273.3" x2="270.6" y2="245.9" xlink:href="#Gradiente_sem_nome_15"/>
    <linearGradient id="Gradiente_sem_nome_15-19" data-name="Gradiente sem nome 15" x1="131.6" y1="356.1" x2="131.6" y2="298.5" xlink:href="#Gradiente_sem_nome_15"/>
    <linearGradient id="Gradiente_sem_nome_15-20" data-name="Gradiente sem nome 15" x1="217.6" y1="356" x2="217.6" y2="298.3" xlink:href="#Gradiente_sem_nome_15"/>
  </defs>
  <!-- Generator: Adobe Illustrator 28.6.0, SVG Export Plug-In . SVG Version: 1.2.0 Build 709)  -->
  <g>
    <g id="Camada_1">
      <g>
        <path class="cls-24" d="M147.7,430.8c0,1.7-.6,2.7-1.9,3-.3.1-.7.2-1,.2-1.1,0-2.1-.6-3.3-1.9-2.5-2.8-5-5.7-8-9l-3.8-4.3-.9-1v5.4c0,2.6,0,4.8,0,7,0,2.6-1,3.9-3.1,3.9h-.1c-2.6,0-3.2-2.1-3.2-3.8,0-7.3,0-14.8,0-22.1v-.3c0-1.7.6-2.7,1.8-3.2.4-.2.9-.3,1.3-.3,1,0,2,.6,3,1.7,2.4,2.7,4.8,5.5,7.3,8.5,1,1.2,2.2,2.5,3.3,3.9l.6.7.2-.9c1.2-4.2,1.2-7.5,1.2-10.4,0-2.4.9-3.4,2.9-3.5h.2c2.7,0,3.3,1.9,3.3,3.5,0,7.9,0,15.7,0,22.9Z"/>
        <path class="cls-24" d="M235.8,408.5c0,4.4,0,8.7,0,13.1,0,2.8,0,5.6,0,8.3,0,1.9-.1,3.4-2,4-.3.1-.7.2-1,.2-1.3,0-2.3-1-3.2-2l-.2-.3c-3.5-3.9-7.1-8-11.7-11.7l-.8-.7v4c0,2.2,0,4.5,0,6.8,0,1.4-.3,2.5-1,3.2-.6.6-1.4.9-2.5.9-2,0-2.9-1.2-2.9-4.1,0-6.5,0-13.3,0-21.4,0-1.9.2-3.5,1.9-4.1.5-.2.9-.2,1.3-.2,1.2,0,2.3.6,3.4,1.9,2.5,2.9,4.8,5.8,7.6,9.2,1.2,1.4,2.4,2.9,3.7,4.5l.9,1.1v-1.4c0-1.5,0-2.9,0-4.2,0-2.6,0-4.9,0-7.1,0-2.7,1-3.9,3.1-4h.1c1.1,0,1.8.3,2.4.8.6.7,1,1.7.9,3.3Z"/>
        <path class="cls-24" d="M114.9,421.6c-.5,7.1-6.6,12.8-13.6,12.8h-.2c-7.4-.1-13.4-6-13.7-13.4,0-2.5,0-5,0-7.4,0-1.6,0-3.3,0-5,0-2.9,1-4.2,3.4-4.2h.2c1,0,1.7.2,2.2.7.6.6.9,1.7.9,3.3,0,.6,0,1.3,0,1.9,0,3,0,6.1.2,9.1.5,4.8,3.1,7.8,6.8,7.8s.6,0,.8,0c5-.6,5.7-4.3,5.7-8.2v-1.7c0-3,0-6.2.2-9.2.1-2.5,1.2-3.8,3.3-3.8s.3,0,.5,0c2.3.2,3.3,1.4,3.3,3.8,0,1.6,0,3.3,0,4.9,0,.5,0,1.1,0,1.6h0v.5c0,.7,0,1.4,0,2,0,1.5,0,2.9,0,4.4Z"/>
        <path class="cls-24" d="M203.7,430.9c0,1.8-1,2.8-3,2.8-.9,0-1.8,0-2.9,0s-1.5,0-2.3,0c-.8,0-1.5,0-2.3,0-.8,0-1.5,0-2.2,0-7.5,0-7.5-.2-7.5-9.8,0-1.4,0-2.8,0-4.1,0-3.5,0-7.2,0-10.8,0-1.7.3-2.8,1.1-3.6.7-.7,1.8-1.1,3.4-1.1h.1c1,0,1.9,0,2.9,0h3.8c1.6,0,3.4,0,5.3,0,2.4,0,3.6,1,3.7,2.9,0,1.9-1,2.8-3.5,3-1.4.1-2.9.2-4.3.2-.9,0-1.8,0-2.6,0-2.6.1-3.1,1.6-3.2,2.8,0,1.8,1.1,2.8,3.1,2.9.8,0,1.7,0,2.5,0,1.1,0,2.3,0,3.4.2,2.6.2,3.6,1.1,3.5,3-.1,1.9-1.3,2.8-3.7,3-.8,0-1.5,0-2.3,0-.7,0-1.5,0-2.2,0-.2,0-.5,0-.8,0-1.4,0-3.5,0-3.5,2.5,0,.9.2,1.6.7,2.1.7.7,1.7.8,2.7.8h.7c.2,0,.4,0,.5,0,1.1,0,2.3,0,3.4,0s1.7,0,2.5,0c2.1,0,3.1.9,3.1,2.8Z"/>
        <path class="cls-24" d="M81.3,426.5c-.7,4.9-5.5,8.1-11.8,8.1h-.1c-2.3,0-4.6-.6-7.4-2-1.3-.6-2-1.2-2.2-1.9-.2-.6,0-1.3.3-2.1.8-1.6,1.7-2.2,2.8-2.2s.9,0,1.4.3c.4.1.8.3,1.2.5,1.4.6,3,1.2,4.4,1.2s2.2-.6,2.6-1.8c.3-.9.3-1.7,0-2.3-.7-1.1-2.3-1.5-3.8-1.8-.9-.2-1.7-.3-2.3-.6-4.5-2.2-6.8-5.8-6.2-9.6.7-4.7,4.1-7.7,9.1-8,.8,0,1.5,0,2.2,0,2.4,0,4.2.3,6,1,1,.4,2.1.9,2.4,1.7.2.4.1,1-.1,1.6-.8,1.8-1.5,2.8-3,2.8s-.5,0-.8,0c-.6-.1-1.2-.3-2-.6-1.1-.4-2.3-.8-3.3-.8s-2.3.8-2.7,2.2c-.2,1-.1,1.8.3,2.4.8,1.2,2.6,1.5,4.3,1.8.9.2,1.7.3,2.3.5,5,2,7.4,5.4,6.7,9.5Z"/>
        <path class="cls-24" d="M176.4,425.5c0,4-3.3,7.4-8.7,8.7-.9.2-1.9.3-2.9.3-2.1,0-4.2-.5-7-1.6-1.4-.6-2.2-1.2-2.6-2-.3-.6-.2-1.4.2-2.3.6-1.5,1.5-2.2,2.7-2.2s1.1.1,1.8.4c1.6.7,3.4,1,4.9,1.2.2,0,.4,0,.7,0,1.4,0,2.4-.7,2.7-1.9.5-1.9-1.1-2.5-2-2.9h-.2c-.6-.3-1.1-.4-1.7-.6-.4,0-.8-.2-1.2-.3-6.5-2.2-8.8-5.5-7.8-11.1.9-4.6,4.6-7.1,10.9-7.1h.2c.2,0,.4,0,.5,0,1.6,0,3.5.4,5.3,1.1,1,.4,2,.8,2.3,1.6.2.4.1.8,0,1.3-.7,1.8-1.4,3.1-3,3.1s-.7,0-1.1-.2c-.3-.1-.7-.2-1.1-.4-1.2-.4-2.5-.9-3.6-.9s-2.4.8-2.8,2.2c-.2.8-.2,1.6.2,2.2.7,1.2,2.4,1.6,4,2,.7.2,1.3.3,1.8.5,5.2,2.1,7.4,4.7,7.4,8.8Z"/>
        <path class="cls-24" d="M291.2,430.9c0,1.8-1,2.8-3,2.8-.9,0-1.8,0-2.9,0s-1.5,0-2.3,0c-.8,0-1.5,0-2.3,0-.8,0-1.5,0-2.2,0-7.5,0-7.5-.2-7.5-9.8,0-1.4,0-2.8,0-4.1,0-3.5,0-7.2,0-10.8,0-1.7.3-2.8,1.1-3.6.7-.7,1.8-1.1,3.4-1.1h.1c1,0,1.9,0,2.9,0h3.8c1.6,0,3.4,0,5.3,0,2.4,0,3.6,1,3.7,2.9,0,1.9-1,2.8-3.5,3-1.4.1-2.9.2-4.3.2-.9,0-1.8,0-2.6,0-2.6.1-3.1,1.6-3.2,2.8,0,1.8,1.1,2.8,3.1,2.9.8,0,1.7,0,2.5,0,1.1,0,2.3,0,3.4.2,2.6.2,3.6,1.1,3.5,3-.1,1.9-1.3,2.8-3.7,3-.8,0-1.5,0-2.3,0-.7,0-1.5,0-2.2,0-.2,0-.5,0-.8,0-1.4,0-3.5,0-3.5,2.5,0,.9.2,1.6.7,2.1.7.7,1.7.8,2.7.8h.7c.2,0,.4,0,.5,0,1.1,0,2.3,0,3.4,0s1.7,0,2.5,0c2.1,0,3.1.9,3.1,2.8Z"/>
        <path class="cls-24" d="M264,425.5c0,4-3.3,7.4-8.7,8.7-.9.2-1.9.3-2.9.3-2.1,0-4.2-.5-7-1.6-1.4-.6-2.2-1.2-2.6-2-.3-.6-.2-1.4.2-2.3.6-1.5,1.5-2.2,2.7-2.2s1.1.1,1.8.4c1.6.7,3.4,1,4.9,1.2.2,0,.4,0,.7,0,1.4,0,2.4-.7,2.7-1.9.5-1.9-1.1-2.5-2-2.9h-.2c-.6-.3-1.1-.4-1.7-.6-.4,0-.8-.2-1.2-.3-6.5-2.2-8.8-5.5-7.8-11.1.9-4.6,4.6-7.1,10.9-7.1h.2c.2,0,.4,0,.5,0,1.6,0,3.5.4,5.3,1.1,1,.4,2,.8,2.3,1.6.2.4.1.8,0,1.3-.7,1.8-1.4,3.1-3,3.1s-.7,0-1.1-.2c-.3-.1-.7-.2-1.1-.4-1.2-.4-2.5-.9-3.6-.9s-2.4.8-2.8,2.2c-.2.8-.2,1.6.2,2.2.7,1.2,2.4,1.6,4,2,.7.2,1.3.3,1.8.5,5.2,2.1,7.4,4.7,7.4,8.8Z"/>
      </g>
    </g>
    <g id="amarelo">
      <path class="cls-21" d="M175,295.2c-36.5.9-57.9-28.7-58-56.8,0-31.5,25.6-57.2,57-57.3,32.1,0,57.9,25.2,58,56.7,0,32.5-24.6,57.3-57,57.4ZM177.1,278.2c8.1.8,17.6-2.8,25.8-8.5,12.2-8.5,19.4-20.6,17.4-35.8-2.4-18.5-13-31.4-30.8-37.6-17.6-6.1-33.4-2.2-47.1,10.2-16.8,15.3-19,38.1-5.1,55,9.6,11.7,22.5,16.6,39.8,16.7Z"/>
      <path class="cls-6" d="M213,117.7c-1,14.7-6.5,27.2-16,38.1-3.4,3.9-6.9,7.7-10.4,11.5-1,1-2.1,2.8-3.6,2.1-1.9-.8-1.3-2.9-1-4.4,3-14.8,7.5-29,17-41,2.4-3,5-5.8,7.6-8.5,1.4-1.5,2.9-4,5.2-2.9,2.1,1,.9,3.6,1.1,5.3Z"/>
      <path class="cls-19" d="M136.2,115.3c0-.8-.2-2.5,1.3-3,1.9-.7,3.1.9,4.2,2,12.7,11.8,20,26.7,24.5,43.2.8,3,1.5,6.1,1.9,9.3.3,2.5-1,4.4-3.5,2.1-15.5-14.4-27-31-28.4-53.6Z"/>
      <path class="cls-22" d="M103.2,232.1c-21.2-.4-38.9-9-54.5-22.7-.9-.8-2.2-1.5-1.5-2.8.8-1.4,2.6-1.5,4-1.4,9.8.6,19.5,2.2,28.5,6.2,9,4,17.2,9.2,25.3,14.8,1.7,1.1,4.5,2.2,3.4,4.7-.9,2.2-3.5,1-5.3,1Z"/>
      <path class="cls-28" d="M245.6,232.3c-1,0-2,0-3,0-1.2,0-2.5-.1-2.8-1.6-.2-1.1.6-1.9,1.4-2.5,3.8-2.7,7.5-5.4,11.4-8,13.2-8.6,27.4-14.1,43.3-14.9,1.6,0,3.5-.6,4.6,1,.9,1.3-.4,2.1-1.2,2.9-15.1,14.3-32.9,22.1-53.7,23.1Z"/>
      <path class="cls-3" d="M64.5,185.1c7.6.3,15.2,1.1,22.7,2.5,12,2.2,19.9,10,27.3,18.7.8,1,1.9,2.2.9,3.6-1.1,1.5-2.7.8-4.1.6-12.9-1.6-24.5-7-36.1-12.4-6-2.8-11.9-5.8-17.9-8.7-1.2-.6-2.8-1-2.5-2.7.3-1.7,1.9-1.6,3.2-1.6,2.2,0,4.3,0,6.5,0Z"/>
      <path class="cls-2" d="M282.8,185.1c3.3,0,5.3,0,7.3,0,1.3,0,2.9-.1,3.2,1.6.3,1.6-1.2,2.3-2.3,2.8-17.1,7-32.8,17.7-51.5,20.9-2,.3-4.6,1.9-5.9-.6-1-2,1.2-3.6,2.3-5.1,9-11.8,20.9-18.1,35.7-18.7,4.1-.2,8.3-.7,11.1-.9Z"/>
      <path class="cls-5" d="M114.1,134.5c0-5.4.6-9.3,2.5-12.9.5-.9,1-1.8,2.2-1.6.9.2,1.3,1,1.5,1.8,2.7,16.9,15.3,28.4,23.5,42.2,1.9,3.1,3.7,6.3,5,9.7.5,1.3.7,2.7-.5,3.7-1.1.9-2.2.2-3.2-.3-14.9-8.4-25.8-20.1-30.1-37.1-.6-2.2-.6-4.6-.7-5.5Z"/>
      <path class="cls-20" d="M235.1,132.6c-.5,14.8-7.5,26.2-18.5,35.5-3.2,2.7-6.4,5.2-9.8,7.6-1.7,1.1-3.8,3.4-5.7,1.6-2.1-1.9-.3-4.5.8-6.4,4.1-7,8.1-14.2,13-20.6,6.3-8.3,11.8-16.8,14.6-26.9.3-1.2.4-3,2.1-3,1.5,0,1.8,1.7,2.3,2.9,1.2,3,1.4,6.1,1.3,9.3Z"/>
      <path class="cls-12" d="M174.6,274.3c-19.2,0-33-9.8-37.9-26.4-4.2-14.2,2.3-31.6,14.9-39.7,17.5-11.2,39-8.3,53,7,16.3,18,8.8,48.2-14,56.3-5.4,1.9-10.9,3-15.9,2.8ZM162.9,263.8c-1.2-1.3-2.5-2.6-3.6-4-2.6-3.5-4.8-7.3-4.2-11.9.2-1.7.9-3.3,2.9-3.6,2.1-.3,2.9,1.2,3.6,2.8.6,1.4,1,2.8,1.6,4.2,2.5,5.8,6.3,10.1,12.7,11.6,9.1,2.1,16.5-.9,22.3-7.7,5.8-7,7.6-15.3,4.1-23.9-4.6-11.3-13.6-17.5-25.7-18.6-10.9-1-19.7,3.7-26.8,11.7-1.3,1.5-3.4,3.7-1.4,5.6,2,2,4-.2,5.6-1.5,5-4.4,10.6-7.3,17.3-8.2,14.6-1.9,28.9,10.6,27.8,24.3-.6,7.4-7.8,14.7-15.3,15.5-8.6,1-15-2.6-17.6-9.8-1.5-4.3.2-9.5,3.9-11.8,4.1-2.5,8.3-1.6,11.9,2.5,1.3,1.5,2.3,4.5,4.9,2.6,2.4-1.8,1.7-4.5.4-6.8-3.3-6.1-8.9-7.7-15.2-7.5-9.3.3-18.2,7.6-20.2,16.5-1.5,7.1,2.6,14.5,10.9,18Z"/>
    </g>
    <g id="roxo">
      <path class="cls-13" d="M186.3,114.8c0,13.3-4.8,23-9.3,32.8-1.3,2.8-2.8,2.9-4.6.2-11.3-16.1-11.8-40-1.1-55.4,2.9-4.2,3.8-4.3,6.7,0,5,7.4,9,15.2,8.3,22.4Z"/>
      <path class="cls-10" d="M186.5,360.7c.4,6.5-4.3,13.9-9.8,20.9-1.5,2-3,1.7-4.4-.2-6.5-8.8-10.9-18.2-8.6-29.6,1.6-8.2,4.8-15.9,8.4-23.3,1.3-2.7,3.3-3.7,4.9-.4,4.8,9.3,9.2,18.8,9.4,32.7Z"/>
      <path class="cls-15" d="M103.7,307c-.5,0-1.7-.1-2.8-.3-11.3-1.8-21.5.3-30.3,7.9-1.4,1.2-3.2,3.6-5,1.8-2.1-2,.4-3.9,1.6-5.6,5.5-7.5,12.5-12.9,21.8-14.7,12.2-2.4,23.7-6.5,33.6-14.2,3.2-2.5,5-1.3,6.2,2.2,2.1,6-.2,13.3-5.6,17.3-4.5,3.4-12.3,5.7-19.4,5.6Z"/>
      <path class="cls-16" d="M54.3,228c5.9,0,14.4,4.6,23.1,8.9,2.1,1.1,1.8,2.3,0,3.7-16.7,11.9-33,12.4-50.2,1.4-4.5-2.9-4.5-3.9.1-6.8,7-4.4,14.5-7.3,27.1-7.2Z"/>
      <path class="cls-14" d="M224.3,280.4c.9.5,2.1,1,3.1,1.8,9.2,7.7,20.1,11.4,31.6,13.6,10.3,2,17.6,8,23.6,16.2,1,1.3,2.5,2.8.8,4.3-1.6,1.5-3.1,0-4.3-1.2-9.2-8.4-20-10.2-32-8.5-7.2,1-14.2-.6-20.4-4.8-6.3-4.3-8.9-12-6.3-18.3.6-1.5,1.2-3.2,3.7-3.2Z"/>
      <path class="cls-26" d="M301.8,227.9c6-.2,13.7,3.6,20.9,8.6,3,2.1,1.4,3.4-.6,4.7-18.6,12.7-30.3,10.7-50.3-.6-3.4-1.9-1.2-3.5.7-4.6,8.2-4.5,16.7-8,29.3-8.1Z"/>
      <path class="cls-30" d="M247.1,170.1c.5,0,2.4,0,4.2.2,10.5,1.7,19.8-.6,27.5-8.2,1.3-1.2,3.1-3.5,5-1.5,1.5,1.6-.5,3.4-1.5,4.7-6.6,8.5-14.6,14.5-25.8,16.3-10.4,1.7-20.1,5.8-28.6,12.2-4.4,3.3-6.3,2.5-7.5-2.8-1.5-6.2.7-11.1,5.5-15,5.1-4.2,11.5-6.1,21.4-6Z"/>
      <path class="cls-27" d="M129.4,187c0,1.3,0,2.3-.2,3.3-1,5.7-2.8,6.6-7.4,3.4-9.2-6.3-19.2-10.5-30.2-12.2-9.7-1.5-17.4-6.3-23.3-14.1-.7-.9-1.4-1.9-2-2.9-.7-1.2-1.4-2.6-.1-3.6,1.3-1.1,2.5,0,3.5.9,4.8,4.6,10.3,7.8,17,8.8,3,.4,5.9.3,8.9,0,9-.9,17.9-1.1,26.2,3.7,5.1,3,7.4,7.4,7.8,12.7Z"/>
      <path class="cls-29" d="M69.4,138.3c-.2-2.6,1.4-3.2,3.5-2.9,17.7,2.3,33.1,8.6,42.6,24.8.7,1.2,2.2,2.7,1.1,4-1.3,1.5-2.7-.2-4-.8-6.2-2.8-12.9-2.8-19.5-3.1-10.8-.4-23.5-12.3-23.7-22.1Z"/>
      <path class="cls-9" d="M73.1,340.9c-4.3.4-4.5-1.4-4-3.7,2.2-11.6,13.7-21.3,25.6-21.6,6.2-.1,12.3-.6,18.1-2.8,1.2-.4,2.6-1.6,3.7-.3,1.1,1.5-.4,2.8-1.1,4-7.5,12.4-18.8,19.4-32.7,22.5-3.6.8-7.2,1.4-9.5,1.8Z"/>
      <path class="cls-4" d="M275.7,341c-16.3-2.4-30.8-8.2-40.6-22.3-.8-1.2-1.7-2.5-2.3-3.8-.9-2.3,0-3.3,2.3-2.4,6.9,2.8,14.2,2.8,21.5,3.4,10.9.8,21.1,10.4,23.2,21.1.7,3.6-1,4.5-4.1,4.1Z"/>
      <path class="cls-1" d="M136.1,359.5c1.4-17.1,8.6-31.5,20.5-43.7,2.4-2.5,4.9-4.9,7.4-7.4.9-.9,1.7-2.5,3.2-1.9,1.7.7,1.2,2.6,1,4-.8,6.8-3.2,13.2-5.8,19.5-5,12.1-12,22.9-21.8,31.8-1,.9-1.9,2-3.4,1.7-1.1-.2-1.3-1.4-1.1-3.9Z"/>
      <path class="cls-7" d="M58.5,293.1c-1.1-.2-3.3.9-3.9-1.3-.4-1.5,1.3-2.2,2.4-2.8,16.1-9.3,32.2-18.7,50.8-22.5,2.6-.5,6.1-2,7.5.2,1.7,2.6-2.1,4.3-3.6,6.3-10.9,14.5-26.3,18.7-43.4,19.3-3.1.1-6.3.5-9.8.8Z"/>
      <path class="cls-17" d="M274.8,135.5c4.3-.4,5.2.8,4.7,3.7-2.3,12-12.9,20.9-25.3,21.3-5.8.1-11.6.5-17,2.8-1.4.6-3,2.6-4.3.8-1-1.4.6-3.1,1.5-4.5,6.4-10.8,16-17.5,27.8-21.2,4.6-1.4,9.3-2.1,12.7-2.9Z"/>
      <path class="cls-23" d="M213,358.8c0,1.4,1,3.6-.8,4.4-1.9.8-2.7-1.4-3.9-2.4-15.1-12.5-21.8-29.6-26.4-47.9-.4-1.4-.7-3-.6-4.4.1-2.3,1.5-3.1,3.2-1.3,14.1,14.7,28.7,29.1,28.6,51.7Z"/>
      <path class="cls-31" d="M289.4,293.1c-9.6-1.2-19.2-1.3-28.7-3.7-11.8-2.9-19-11.8-26.8-19.9-.7-.7-1.3-1.7-.7-2.7,1-1.5,2.7-1.1,4.1-.9,8.7,1.1,16.9,3.7,24.7,7.4,9.7,4.6,19.1,10,28.6,15.1,1.5.8,4,1.5,3.1,3.8-.7,1.8-3,.7-4.5.9Z"/>
      <path class="cls-8" d="M51,273.2c-1.2-.3-3.4.9-4-1.1-.5-1.5,1.5-2.4,2.5-3.5,14.5-15.9,33.2-21.8,54-22.7,1.3,0,2.7-.1,4,.2,2.2.5,3,2.4.9,3.4-18.3,8.4-34.4,21.8-55.4,23.8-.5,0-1,0-1.8,0Z"/>
      <path class="cls-25" d="M297.6,273.3c-7.7-.8-15.4-2.2-22.4-5.7-11.3-5.7-22.4-11.5-33.6-17.3-1-.5-2.3-1.1-2.1-2.5.2-1.7,1.7-2,3-1.9,18.5.8,36.4,3.4,50.7,16.9,2.2,2.1,4.3,4.1,6.4,6.2.9.9,2.6,1.7,2.1,3.1-.6,1.8-2.6.9-4.1,1.1Z"/>
      <path class="cls-11" d="M113.9,342.5c1.1-12.5,7.4-22.6,15.8-31.4,4.5-4.7,9.9-8.4,15.5-11.6,1-.6,2.1-1.4,3.2-.7,1.3.9.9,2.4.5,3.7-1.3,4-3.4,7.5-5.7,11-5.8,8.5-12.6,16.4-17.5,25.4-2.3,4.3-3.9,8.8-4.7,13.6-.2,1.4-.3,3.3-2.2,3.5-2.1.2-2.6-1.7-3.2-3.3-1.2-3.3-1.8-6.7-1.8-10.3Z"/>
      <path class="cls-18" d="M235.3,343.1c0,3.9-.6,7.6-2.2,11.2-.4.9-.9,1.8-2.2,1.7-1,0-1.4-.9-1.5-1.7-2.6-17.3-15.9-28.4-24.1-42.4-1.8-3.2-3.9-6.2-5.2-9.6-.4-1.1-.6-2.3.3-3.3,1-1.1,2.2-.5,3.2,0,15.1,9.1,27.6,20.3,31.2,38.7.4,1.8.3,3.6.4,5.4Z"/>
    </g>
  </g>
</svg>